<svg id="arbitrum" xmlns="http://www.w3.org/2000/svg" viewBox="0 0 48 48">
    <circle cx="24" cy="24" r="24" fill="#1b4add"/>
    <path
            d="M29.16,6.22H25.51a.67.67,0,0,0-.62.43L13.17,38.81a.32.32,0,0,0,.3.44h3.65a.66.66,0,0,0,.61-.43L29.47,6.65A.34.34,0,0,0,29.16,6.22Zm-6.39,0H19.12a.67.67,0,0,0-.61.43L6.78,38.81a.33.33,0,0,0,.31.44h3.65a.66.66,0,0,0,.61-.43L23.09,6.65A.33.33,0,0,0,22.77,6.22ZM27.5,18.69a.33.33,0,0,0-.62,0L25,23.89a.69.69,0,0,0,0,.45l5.28,14.48a.66.66,0,0,0,.61.43h3.65a.32.32,0,0,0,.31-.43ZM41.22,38.81,30.69,10a.33.33,0,0,0-.61,0l-1.9,5.2a.69.69,0,0,0,0,.45l8.47,23.22a.66.66,0,0,0,.62.43h3.65A.33.33,0,0,0,41.22,38.81Z"
            fill="#ffffff"
    />
</svg>
