<svg xmlns="http://www.w3.org/2000/svg" width="48" height="48" viewBox="0 0 48 48" fill="none">
    <path
        d="M24 0C28.7468 0 33.3869 1.40758 37.3337 4.04473C41.2805 6.68188 44.3566 10.4302 46.1731 14.8156C47.9896 19.201 48.4649 24.0266 47.5388 28.6822C46.6128 33.3377 44.327 37.6141 40.9706 40.9706C37.6141 44.327 33.3377 46.6128 28.6822 47.5388C24.0266 48.4649 19.201 47.9896 14.8156 46.1731C10.4302 44.3566 6.68188 41.2805 4.04473 37.3337C1.40758 33.3869 0 28.7468 0 24C0 17.6348 2.52856 11.5303 7.02944 7.02944C11.5303 2.52856 17.6348 0 24 0V0Z"
        fill="#F6F6F6" />
    <g filter="url(#filter0_d_134_15156)">
        <path
            d="M13.1495 24.3186C13.2728 24.0794 13.4202 23.8543 13.5592 23.6243C15.0119 21.2116 16.4651 18.7994 17.9189 16.3878L22.7429 8.38262C23.1137 7.76799 23.4845 7.15284 23.8552 6.53711C23.8771 6.51243 23.8904 6.48135 23.8933 6.44852H23.9115L23.9289 6.48408C23.8908 6.51884 23.9107 6.56691 23.9107 6.60167C23.9107 10.84 23.9107 15.078 23.9107 19.3158C23.9107 19.358 23.9107 19.3986 23.9107 19.4417L23.5101 19.622L19.9416 21.2441L17.1493 22.5145C15.9906 23.042 14.8321 23.569 13.6734 24.0959C13.5047 24.1832 13.3295 24.2576 13.1495 24.3186Z"
            fill="#8B8B8B" />
    </g>
    <g filter="url(#filter1_d_134_15156)">
        <path
            d="M13.1454 24.2756C13.323 24.214 13.4959 24.1397 13.6626 24.053C14.8213 23.5277 15.9799 23.0003 17.1386 22.4706L19.9308 21.2003L23.4993 19.5782L23.9007 19.3978L23.9082 19.4027C23.9082 19.4234 23.9082 19.4449 23.9082 19.4656C23.9082 23.1622 23.9082 26.8615 23.9082 30.5636C23.9082 30.595 23.8958 30.6306 23.9281 30.6546C23.8966 30.6927 23.8742 30.6546 23.8527 30.6414C22.9313 30.0979 22.0102 29.5536 21.0894 29.0085L13.1703 24.3269C13.1545 24.319 13.1382 24.3124 13.1215 24.307V24.2888L13.1454 24.2756Z"
            fill="#393939" />
    </g>
    <g filter="url(#filter2_d_134_15156)">
        <path
            d="M23.8503 19.4383C23.8503 19.3961 23.8503 19.3556 23.8503 19.3126C23.8503 15.0748 23.8503 10.8369 23.8503 6.59913C23.8503 6.56024 23.8304 6.51642 23.8685 6.48083L27.106 11.8519L34.56 24.2234C34.5766 24.2516 34.5907 24.2805 34.6064 24.3062C34.5732 24.3069 34.5405 24.2984 34.512 24.2814C34.0905 24.09 33.669 23.8968 33.2475 23.702C32.895 23.5415 32.5416 23.3785 32.1874 23.2187L30.4974 22.4533C30.1383 22.2878 29.7799 22.1222 29.4215 21.9608C28.7986 21.6783 28.1752 21.3962 27.5512 21.1142C27.1217 20.9189 26.6921 20.7211 26.2626 20.5249L24.3121 19.6395C24.1598 19.57 24.0066 19.5046 23.8535 19.4375L23.8503 19.4383Z"
            fill="#343434" />
    </g>
    <g filter="url(#filter3_d_134_15156)">
        <path
            d="M23.8586 19.397C24.0117 19.464 24.1647 19.5302 24.317 19.5989L26.2677 20.4853C26.6972 20.6806 27.1259 20.8784 27.5562 21.0737L29.4266 21.9203C29.7858 22.0858 30.1432 22.2513 30.5024 22.4119C31.0652 22.6673 31.6285 22.9225 32.1923 23.1774L33.2525 23.6615C33.6734 23.8541 34.0948 24.0472 34.5163 24.2408C34.5448 24.2577 34.5774 24.2663 34.6105 24.2657C34.6511 24.3236 34.5866 24.3236 34.5651 24.336C34.1424 24.5882 33.7192 24.8392 33.2955 25.0891L30.2335 26.899L26.948 28.8414L24.1234 30.5114C24.0406 30.5595 23.9579 30.6058 23.8751 30.6521C23.8429 30.6273 23.8552 30.5917 23.8552 30.5603C23.8552 26.8637 23.8552 23.1644 23.8552 19.4623C23.8561 19.4392 23.8577 19.4201 23.8586 19.397Z"
            fill="#141414" />
    </g>
    <g filter="url(#filter4_d_134_15156)">
        <path
            d="M23.8974 41.4703C23.7543 41.3048 23.6383 41.1203 23.5125 40.9423C22.1272 38.992 20.7427 37.0411 19.3589 35.0897L15.5594 29.7343C14.7766 28.6309 13.9934 27.5274 13.2099 26.424C13.1909 26.3975 13.1735 26.3702 13.1454 26.3288C13.2175 26.3516 13.2855 26.3859 13.3465 26.4306C15.4525 27.6736 17.5578 28.9172 19.6626 30.1614L23.8287 32.6243C23.8544 32.6392 23.8825 32.6499 23.9115 32.6632C23.9115 32.7079 23.9073 32.7525 23.9073 32.7981C23.9073 35.6472 23.9073 38.4963 23.9073 41.3454C23.9057 41.3867 23.8999 41.4281 23.8974 41.4703Z"
            fill="#8B8B8B" />
    </g>
    <g filter="url(#filter5_d_134_15156)">
        <path
            d="M23.8461 41.4753C23.8461 41.4339 23.8535 41.3925 23.8535 41.3503C23.8535 38.5012 23.8535 35.6524 23.8535 32.8039C23.8535 32.7592 23.8535 32.7145 23.8535 32.669C24.7832 32.1206 25.7129 31.5724 26.6425 31.0246L34.498 26.3901C34.522 26.376 34.5443 26.3528 34.5807 26.3586C34.5874 26.4017 34.5567 26.4223 34.5385 26.4472L24.5445 40.5244C24.3332 40.8218 24.1217 41.1192 23.9098 41.4165C23.8957 41.4364 23.8883 41.4753 23.8461 41.4753Z"
            fill="#3C3C3B" />
    </g>
    <defs>
        <filter id="filter0_d_134_15156" x="11.1495" y="5.44852" width="14.7793" height="21.8701"
            filterUnits="userSpaceOnUse" color-interpolation-filters="sRGB">
            <feFlood flood-opacity="0" result="BackgroundImageFix" />
            <feColorMatrix in="SourceAlpha" type="matrix" values="0 0 0 0 0 0 0 0 0 0 0 0 0 0 0 0 0 0 127 0"
                result="hardAlpha" />
            <feOffset dy="1" />
            <feGaussianBlur stdDeviation="1" />
            <feColorMatrix type="matrix" values="0 0 0 0 0 0 0 0 0 0 0 0 0 0 0 0 0 0 0.161 0" />
            <feBlend mode="normal" in2="BackgroundImageFix" result="effect1_dropShadow_134_15156" />
            <feBlend mode="normal" in="SourceGraphic" in2="effect1_dropShadow_134_15156" result="shape" />
        </filter>
        <filter id="filter1_d_134_15156" x="11.1215" y="18.3978" width="14.8066" height="15.2733"
            filterUnits="userSpaceOnUse" color-interpolation-filters="sRGB">
            <feFlood flood-opacity="0" result="BackgroundImageFix" />
            <feColorMatrix in="SourceAlpha" type="matrix" values="0 0 0 0 0 0 0 0 0 0 0 0 0 0 0 0 0 0 127 0"
                result="hardAlpha" />
            <feOffset dy="1" />
            <feGaussianBlur stdDeviation="1" />
            <feColorMatrix type="matrix" values="0 0 0 0 0 0 0 0 0 0 0 0 0 0 0 0 0 0 0.161 0" />
            <feBlend mode="normal" in2="BackgroundImageFix" result="effect1_dropShadow_134_15156" />
            <feBlend mode="normal" in="SourceGraphic" in2="effect1_dropShadow_134_15156" result="shape" />
        </filter>
        <filter id="filter2_d_134_15156" x="21.8451" y="5.48083" width="14.7612" height="21.8254"
            filterUnits="userSpaceOnUse" color-interpolation-filters="sRGB">
            <feFlood flood-opacity="0" result="BackgroundImageFix" />
            <feColorMatrix in="SourceAlpha" type="matrix" values="0 0 0 0 0 0 0 0 0 0 0 0 0 0 0 0 0 0 127 0"
                result="hardAlpha" />
            <feOffset dy="1" />
            <feGaussianBlur stdDeviation="1" />
            <feColorMatrix type="matrix" values="0 0 0 0 0 0 0 0 0 0 0 0 0 0 0 0 0 0 0.161 0" />
            <feBlend mode="normal" in2="BackgroundImageFix" result="effect1_dropShadow_134_15156" />
            <feBlend mode="normal" in="SourceGraphic" in2="effect1_dropShadow_134_15156" result="shape" />
        </filter>
        <filter id="filter3_d_134_15156" x="21.8529" y="18.397" width="14.7708" height="15.2552"
            filterUnits="userSpaceOnUse" color-interpolation-filters="sRGB">
            <feFlood flood-opacity="0" result="BackgroundImageFix" />
            <feColorMatrix in="SourceAlpha" type="matrix" values="0 0 0 0 0 0 0 0 0 0 0 0 0 0 0 0 0 0 127 0"
                result="hardAlpha" />
            <feOffset dy="1" />
            <feGaussianBlur stdDeviation="1" />
            <feColorMatrix type="matrix" values="0 0 0 0 0 0 0 0 0 0 0 0 0 0 0 0 0 0 0.161 0" />
            <feBlend mode="normal" in2="BackgroundImageFix" result="effect1_dropShadow_134_15156" />
            <feBlend mode="normal" in="SourceGraphic" in2="effect1_dropShadow_134_15156" result="shape" />
        </filter>
        <filter id="filter4_d_134_15156" x="11.1454" y="25.3288" width="14.7661" height="19.1415"
            filterUnits="userSpaceOnUse" color-interpolation-filters="sRGB">
            <feFlood flood-opacity="0" result="BackgroundImageFix" />
            <feColorMatrix in="SourceAlpha" type="matrix" values="0 0 0 0 0 0 0 0 0 0 0 0 0 0 0 0 0 0 127 0"
                result="hardAlpha" />
            <feOffset dy="1" />
            <feGaussianBlur stdDeviation="1" />
            <feColorMatrix type="matrix" values="0 0 0 0 0 0 0 0 0 0 0 0 0 0 0 0 0 0 0.161 0" />
            <feBlend mode="normal" in2="BackgroundImageFix" result="effect1_dropShadow_134_15156" />
            <feBlend mode="normal" in="SourceGraphic" in2="effect1_dropShadow_134_15156" result="shape" />
        </filter>
        <filter id="filter5_d_134_15156" x="21.8461" y="25.3577" width="14.7356" height="19.1176"
            filterUnits="userSpaceOnUse" color-interpolation-filters="sRGB">
            <feFlood flood-opacity="0" result="BackgroundImageFix" />
            <feColorMatrix in="SourceAlpha" type="matrix" values="0 0 0 0 0 0 0 0 0 0 0 0 0 0 0 0 0 0 127 0"
                result="hardAlpha" />
            <feOffset dy="1" />
            <feGaussianBlur stdDeviation="1" />
            <feColorMatrix type="matrix" values="0 0 0 0 0 0 0 0 0 0 0 0 0 0 0 0 0 0 0.161 0" />
            <feBlend mode="normal" in2="BackgroundImageFix" result="effect1_dropShadow_134_15156" />
            <feBlend mode="normal" in="SourceGraphic" in2="effect1_dropShadow_134_15156" result="shape" />
        </filter>
    </defs>
</svg>