<?xml version="1.0" encoding="UTF-8"?>
<!DOCTYPE svg PUBLIC "-//W3C//DTD SVG 1.1//EN" "http://www.w3.org/Graphics/SVG/1.1/DTD/svg11.dtd">
<svg xmlns="http://www.w3.org/2000/svg" version="1.1" width="290px" height="138px" style="shape-rendering:geometricPrecision; text-rendering:geometricPrecision; image-rendering:optimizeQuality; fill-rule:evenodd; clip-rule:evenodd" xmlns:xlink="http://www.w3.org/1999/xlink">
<g><path style="opacity:0.947" fill="#fbfcfb" d="M 86.5,68.5 C 85.8826,68.3893 85.3826,68.056 85,67.5C 84.1925,71.0267 84.3592,74.3601 85.5,77.5C 85.3076,81.1024 83.9743,84.1024 81.5,86.5C 78.2804,89.8831 74.6138,92.7165 70.5,95C 70.7284,95.3988 71.0618,95.5654 71.5,95.5C 66.0709,98.7878 60.4043,99.1211 54.5,96.5C 55.5771,94.2706 56.2437,91.9372 56.5,89.5C 60.2343,89.6773 63.9009,89.3439 67.5,88.5C 70.5158,88.1594 73.1825,86.9927 75.5,85C 74.9558,84.2828 74.2891,83.7828 73.5,83.5C 75.1155,81.262 76.4488,78.9287 77.5,76.5C 78.6651,75.5039 79.3318,74.1705 79.5,72.5C 79.0946,69.4952 78.0946,66.8285 76.5,64.5C 75.3924,60.8689 73.2258,57.8689 70,55.5C 69.6174,56.056 69.1174,56.3893 68.5,56.5C 64.6291,55.1598 60.6291,54.3265 56.5,54C 55.4459,51.6178 54.7792,49.1178 54.5,46.5C 71.441,44.7824 82.1077,52.1157 86.5,68.5 Z"/></g>
<g><path style="opacity:0.975" fill="#fbfbfb" d="M 48.5,51.5 C 48.5191,53.0603 48.8524,54.5603 49.5,56C 48.5862,57.4064 47.9195,58.9064 47.5,60.5C 46.7368,62.3684 45.7368,64.0351 44.5,65.5C 43.7611,65.369 43.0944,65.5357 42.5,66C 42.9751,67.9606 42.9751,70.1273 42.5,72.5C 42.6363,74.8645 42.9697,77.1979 43.5,79.5C 43.7472,80.7133 44.4138,81.38 45.5,81.5C 46.5,82.5 47.5,83.5 48.5,84.5C 49.799,87.0679 49.799,90.0679 48.5,93.5C 47.0379,94.4709 45.7046,94.1376 44.5,92.5C 44.2623,90.5217 42.9289,88.8551 40.5,87.5C 40.16,85.321 39.16,83.4877 37.5,82C 37.5,80.3333 37.5,78.6667 37.5,77C 36.1859,76.015 35.1859,74.8484 34.5,73.5C 34.5775,63.0117 39.0775,55.0117 48,49.5C 48.4643,50.0944 48.631,50.7611 48.5,51.5 Z"/></g>
<g><path style="opacity:0.903" fill="#fcfcfc" d="M 149.5,59.5 C 147.744,60.5521 147.077,62.2188 147.5,64.5C 144.72,64.9452 142.053,64.9452 139.5,64.5C 138.5,65 137.5,65.5 136.5,66C 136.728,66.3988 137.062,66.5654 137.5,66.5C 137.833,69.1667 138.167,69.1667 138.5,66.5C 138.833,66.5 139.167,66.5 139.5,66.5C 141.828,67.718 144.328,68.718 147,69.5C 147.495,71.4727 147.662,73.4727 147.5,75.5C 144.813,75.3359 142.146,75.5026 139.5,76C 138.244,76.4169 137.577,77.2502 137.5,78.5C 140.337,80.4023 143.671,81.069 147.5,80.5C 147.366,82.2915 147.699,83.9582 148.5,85.5C 142.894,87.7691 137.227,87.7691 131.5,85.5C 130.416,84.3349 129.583,83.0016 129,81.5C 128.333,75.5 128.333,69.5 129,63.5C 130.606,59.5232 133.606,57.5232 138,57.5C 142.005,57.9919 145.838,58.6586 149.5,59.5 Z"/></g>
<g><path style="opacity:0.872" fill="#fbfbfb" d="M 154.5,57.5 C 160.885,56.3731 164.719,59.0398 166,65.5C 167.419,63.6641 168.586,61.6641 169.5,59.5C 172.391,58.3219 175.391,57.6553 178.5,57.5C 178.657,58.8734 178.49,60.2068 178,61.5C 175.179,64.976 173.013,68.8093 171.5,73C 174.122,77.4265 176.455,81.9265 178.5,86.5C 172.404,88.0735 168.238,86.0735 166,80.5C 163.71,86.3963 159.544,88.063 153.5,85.5C 156.105,81.2891 158.438,76.9558 160.5,72.5C 158.438,68.0442 156.105,63.7109 153.5,59.5C 153.863,58.8165 154.196,58.1499 154.5,57.5 Z"/></g>
<g><path style="opacity:0.865" fill="#fcfcfd" d="M 189.5,57.5 C 194.141,58.1266 198.807,58.4599 203.5,58.5C 203.768,61.1194 203.435,63.6194 202.5,66C 198.848,66.4986 195.182,66.6653 191.5,66.5C 191.5,67.5 191.5,68.5 191.5,69.5C 194.518,69.3354 197.518,69.502 200.5,70C 201.423,72.0408 201.756,74.2075 201.5,76.5C 198.167,76.5 194.833,76.5 191.5,76.5C 191.5,79.8333 191.5,83.1667 191.5,86.5C 188.5,86.5 185.5,86.5 182.5,86.5C 182.094,78.0826 182.594,69.7492 184,61.5C 185.5,59.5313 187.333,58.198 189.5,57.5 Z"/></g>
<g><path style="opacity:0.85" fill="#fdfdfd" d="M 209.5,57.5 C 212.167,57.5 214.833,57.5 217.5,57.5C 217.5,67.1667 217.5,76.8333 217.5,86.5C 214.5,86.5 211.5,86.5 208.5,86.5C 208.194,76.7504 208.527,67.0838 209.5,57.5 Z"/></g>
<g><path style="opacity:0.844" fill="#fcfdfd" d="M 224.5,57.5 C 226.199,57.3398 227.866,57.5065 229.5,58C 232.952,61.7336 235.785,65.9003 238,70.5C 238.333,66.5 238.667,62.5 239,58.5C 241.72,57.689 244.22,57.689 246.5,58.5C 247.498,67.8096 247.832,77.1429 247.5,86.5C 244.753,86.8134 242.086,86.48 239.5,85.5C 237.582,81.9961 235.416,78.6628 233,75.5C 231.663,79.0257 231.163,82.6924 231.5,86.5C 228.833,86.5 226.167,86.5 223.5,86.5C 223.194,76.7504 223.527,67.0838 224.5,57.5 Z"/></g>
<g><path style="opacity:0.527" fill="#ebe9ea" d="M 48.5,51.5 C 52.7656,55.0239 52.4322,58.0239 47.5,60.5C 47.9195,58.9064 48.5862,57.4064 49.5,56C 48.8524,54.5603 48.5191,53.0603 48.5,51.5 Z"/></g>
<g><path style="opacity:0.968" fill="#fcfcfc" d="M 113.5,57.5 C 121.177,59.6553 124.511,64.822 123.5,73C 123.979,78.5948 121.979,82.9281 117.5,86C 112.177,86.4994 106.844,86.666 101.5,86.5C 101.334,77.8269 101.5,69.1603 102,60.5C 106.08,60.0428 109.914,59.0428 113.5,57.5 Z M 114.5,66.5 C 114.665,70.1817 114.499,73.8484 114,77.5C 112.057,78.807 110.223,78.807 108.5,77.5C 108.5,77.1667 108.5,76.8333 108.5,76.5C 108.5,72.8333 108.5,69.1667 108.5,65.5C 110.565,65.5172 112.565,65.8505 114.5,66.5 Z"/></g>
<g><path style="opacity:0.545" fill="#f2f1f1" d="M 76.5,64.5 C 74.1667,61.5 71.5,58.8333 68.5,56.5C 69.1174,56.3893 69.6174,56.056 70,55.5C 73.2258,57.8689 75.3924,60.8689 76.5,64.5 Z"/></g>
<g><path style="opacity:0.726" fill="#efefef" d="M 113.5,57.5 C 109.914,59.0428 106.08,60.0428 102,60.5C 101.5,69.1603 101.334,77.8269 101.5,86.5C 100.173,82.2175 99.5067,77.5508 99.5,72.5C 99.6667,67.8333 99.8333,63.1667 100,58.5C 104.401,57.5333 108.901,57.2 113.5,57.5 Z"/></g>
<g><path style="opacity:0.08" fill="#eff0f1" d="M 149.5,59.5 C 149.756,61.7925 149.423,63.9592 148.5,66C 145.518,66.498 142.518,66.6646 139.5,66.5C 139.167,66.5 138.833,66.5 138.5,66.5C 138.167,66.5 137.833,66.5 137.5,66.5C 137.062,66.5654 136.728,66.3988 136.5,66C 137.5,65.5 138.5,65 139.5,64.5C 142.053,64.9452 144.72,64.9452 147.5,64.5C 147.077,62.2188 147.744,60.5521 149.5,59.5 Z"/></g>
<g><path style="opacity:0.749" fill="#edf0ef" d="M 86.5,68.5 C 86.81,71.7131 86.4767,74.7131 85.5,77.5C 84.3592,74.3601 84.1925,71.0267 85,67.5C 85.3826,68.056 85.8826,68.3893 86.5,68.5 Z"/></g>
<g><path style="opacity:0.626" fill="#f2f3f3" d="M 114.5,66.5 C 115.117,66.6107 115.617,66.944 116,67.5C 116.978,71.9002 116.478,76.0669 114.5,80C 112.19,80.4966 109.857,80.6633 107.5,80.5C 107.263,79.209 107.596,78.209 108.5,77.5C 110.223,78.807 112.057,78.807 114,77.5C 114.499,73.8484 114.665,70.1817 114.5,66.5 Z"/></g>
<g><path style="opacity:0.351" fill="#efefef" d="M 114.5,66.5 C 112.565,65.8505 110.565,65.5172 108.5,65.5C 108.5,69.1667 108.5,72.8333 108.5,76.5C 107.766,75.1225 107.099,73.6225 106.5,72C 106.726,69.7314 107.059,67.2314 107.5,64.5C 110.388,63.9898 112.721,64.6565 114.5,66.5 Z"/></g>
<g><path style="opacity:0.349" fill="#e3e3e3" d="M 44.5,65.5 C 43.0149,70.951 43.3483,76.2843 45.5,81.5C 44.4138,81.38 43.7472,80.7133 43.5,79.5C 42.9697,77.1979 42.6363,74.8645 42.5,72.5C 42.9751,70.1273 42.9751,67.9606 42.5,66C 43.0944,65.5357 43.7611,65.369 44.5,65.5 Z"/></g>
<g><path style="opacity:0.43" fill="#efefef" d="M 76.5,64.5 C 78.0946,66.8285 79.0946,69.4952 79.5,72.5C 79.3318,74.1705 78.6651,75.5039 77.5,76.5C 77.4955,72.4659 77.1621,68.4659 76.5,64.5 Z"/></g>
<g><path style="opacity:0.459" fill="#efefef" d="M 34.5,73.5 C 35.1859,74.8484 36.1859,76.015 37.5,77C 37.5,78.6667 37.5,80.3333 37.5,82C 39.16,83.4877 40.16,85.321 40.5,87.5C 36.3824,83.8349 34.3824,79.1682 34.5,73.5 Z"/></g>
<g><path style="opacity:0.307" fill="#f3f3f3" d="M 137.5,78.5 C 141.182,78.3347 144.848,78.5014 148.5,79C 149.811,81.2735 149.811,83.4402 148.5,85.5C 147.699,83.9582 147.366,82.2915 147.5,80.5C 143.671,81.069 140.337,80.4023 137.5,78.5 Z"/></g>
<g><path style="opacity:0.71" fill="#edeced" d="M 73.5,83.5 C 74.2891,83.7828 74.9558,84.2828 75.5,85C 73.1825,86.9927 70.5158,88.1594 67.5,88.5C 69.4752,86.863 71.4752,85.1964 73.5,83.5 Z"/></g>
<g><path style="opacity:0.412" fill="#dedede" d="M 48.5,84.5 C 52.1546,87.3133 52.1546,90.3133 48.5,93.5C 49.799,90.0679 49.799,87.0679 48.5,84.5 Z"/></g>
<g><path style="opacity:0.467" fill="#edecec" d="M 40.5,87.5 C 42.9289,88.8551 44.2623,90.5217 44.5,92.5C 42.4131,91.4154 41.0798,89.7488 40.5,87.5 Z"/></g>
<g><path style="opacity:0.39" fill="#ececec" d="M 81.5,86.5 C 79.4378,90.8947 76.1045,93.8947 71.5,95.5C 71.0618,95.5654 70.7284,95.3988 70.5,95C 74.6138,92.7165 78.2804,89.8831 81.5,86.5 Z"/></g>
</svg>